<svg width="132" height="28" viewBox="0 0 132 28" fill="none" xmlns="http://www.w3.org/2000/svg">
  <path d="M6.84916 0.0611151C6.28148 -0.0203717 5.70541 -0.0203717 5.13772 0.0611151C3.85686 0.253881 2.67105 0.862904 1.75632 1.79779C0.841583 2.73267 0.246677 3.94357 0.0599022 5.25076C0.0199547 5.54001 -6.10352e-05 5.83175 0 6.12385V21.8727C-6.10352e-05 22.1648 0.0199547 22.4565 0.0599022 22.7457C0.245998 24.0536 0.840607 25.2653 1.7554 26.2008C2.67019 27.1364 3.85637 27.7459 5.13772 27.9389C5.70541 28.0204 6.28148 28.0204 6.84916 27.9389C8.13157 27.7478 9.31931 27.1396 10.2357 26.2046C11.1521 25.2695 11.7483 24.0577 11.9355 22.7492C11.9755 22.46 11.9955 22.1682 11.9954 21.8761V6.12385C11.9955 5.83175 11.9755 5.54001 11.9355 5.25076C11.7483 3.94231 11.1521 2.73046 10.2357 1.79544C9.31931 0.860412 8.13157 0.252152 6.84916 0.0611151ZM6.84916 1.83349C7.67371 2.00668 8.43042 2.42268 9.02569 3.03004C9.62096 3.6374 10.0287 4.40947 10.1984 5.25076H6.84916V1.83349ZM5.13772 1.83349V5.25076H1.79016C1.95937 4.40951 2.36671 3.63738 2.96173 3.02997C3.55674 2.42257 4.3133 2.00657 5.13772 1.83349ZM1.70459 6.99694H5.13772V10.4998H1.70459V6.99694ZM1.70459 12.246H5.13772V15.7505H1.70459V12.246ZM1.70459 17.4967H5.13772V20.9996H1.70459V17.4967ZM5.13772 26.163C4.3133 25.9899 3.55674 25.5739 2.96173 24.9665C2.36671 24.3591 1.95937 23.587 1.79016 22.7457H5.13772V26.163ZM6.84916 26.163V22.7457H10.1984C10.0287 23.587 9.62096 24.3591 9.02569 24.9665C8.43042 25.5738 7.67371 25.9898 6.84916 26.163ZM10.284 20.9996H6.84916V17.4967H10.284V20.9996ZM10.284 15.7505H6.84916V12.246H10.284V15.7505ZM10.284 10.4998H6.84916V6.99694H10.284V10.4998ZM35.9401 5.25076C35.7529 3.94231 35.1567 2.73046 34.2403 1.79544C33.3239 0.860412 32.1361 0.252152 30.8537 0.0611151C30.286 -0.0203717 29.71 -0.0203717 29.1423 0.0611151C27.8602 0.252498 26.6728 0.860911 25.7568 1.79591C24.8407 2.7309 24.2448 3.94256 24.0576 5.25076C24.0177 5.54001 23.9977 5.83175 23.9977 6.12385V21.8727C23.9977 22.1648 24.0177 22.4565 24.0576 22.7457C24.2441 24.0546 24.8397 25.267 25.7558 26.2027C26.672 27.1384 27.8597 27.7473 29.1423 27.9389C29.71 28.0204 30.286 28.0204 30.8537 27.9389C32.1366 27.7477 33.3247 27.1389 34.2412 26.2032C35.1577 25.2675 35.7535 24.0548 35.9401 22.7457C35.98 22.4565 36.0001 22.1648 36 21.8727V6.12385C36.0001 5.83175 35.98 5.54001 35.9401 5.25076ZM30.8537 1.83349C31.6783 2.00668 32.435 2.42268 33.0303 3.03004C33.6255 3.6374 34.0332 4.40947 34.203 5.25076H30.8537V1.83349ZM29.1423 1.83349V5.25076H25.7947C25.9639 4.40951 26.3713 3.63738 26.9663 3.02997C27.5613 2.42257 28.3179 2.00657 29.1423 1.83349ZM25.7092 6.99694H29.1423V10.4998H25.7092V6.99694ZM25.7092 12.246H29.1423V15.7505H25.7092V12.246ZM25.7092 17.4967H29.1423V20.9996H25.7092V17.4967ZM29.1423 26.163C28.3179 25.9899 27.5613 25.5739 26.9663 24.9665C26.3713 24.3591 25.9639 23.587 25.7947 22.7457H29.1423V26.163ZM30.8537 26.163V22.7457H34.203C34.0332 23.587 33.6255 24.3591 33.0303 24.9665C32.435 25.5738 31.6783 25.9898 30.8537 26.163ZM34.2886 20.9996H30.8537V17.4967H34.2886V20.9996ZM34.2886 15.7505H30.8537V12.246H34.2886V15.7505ZM34.2886 10.4998H30.8537V6.99694H34.2886V10.4998ZM13.7103 9.62669H17.1332V13.1191H13.7103V9.62669ZM18.8566 9.62669H22.2794V13.1191H18.8566V9.62669ZM13.7103 14.8775H17.1332V18.3698H13.7103V14.8775ZM18.8566 14.8775H22.2794V18.3698H18.8566V14.8775Z" fill="url(#paint0_linear_469_35712)"/>
  <path d="M54.2059 13.0205H46.7294V6.80408H44V21.8187H46.7294V15.5802H54.2059V21.8187H56.9377V6.80408H54.2059V13.0205Z" fill="white"/>
  <path d="M67.111 16.8292C67.1197 17.1845 67.0532 17.5378 66.9154 17.868C66.7776 18.1982 66.5714 18.4986 66.309 18.7511C66.0467 19.0036 65.7336 19.2031 65.3885 19.3377C65.0435 19.4723 64.6735 19.5391 64.3006 19.5343C63.9563 19.5473 63.6131 19.4897 63.2941 19.3655C62.9752 19.2412 62.6879 19.0531 62.4517 18.814C61.9595 18.3227 61.7214 17.6817 61.7214 16.849V10.2405H58.9989V16.8909C58.9641 17.8615 59.2036 18.8231 59.6923 19.6753C60.1306 20.4139 60.7798 21.0188 61.5643 21.4199C62.303 21.799 63.1289 21.9973 63.9678 21.9971C64.8476 22.0278 65.718 21.8168 66.4754 21.3891C66.6991 21.2552 66.9137 21.1081 67.1179 20.9485V21.8297H69.8497V10.2295H67.111V16.8292Z" fill="white"/>
  <path d="M80.9508 10.8683C80.015 10.32 78.9336 10.0394 77.8354 10.0598C76.9275 10.0385 76.0284 10.233 75.2192 10.626C74.9287 10.7752 74.6539 10.9508 74.3987 11.1502V6H71.667V21.8208H74.3987V20.9022C75.3678 21.6503 76.5894 22.0363 77.8354 21.9882C78.9086 22.0145 79.9671 21.7466 80.8852 21.2163C81.8033 20.686 82.5424 19.9157 83.0146 18.9968C83.501 18.0731 83.7491 17.052 83.738 16.0185C83.7517 14.9806 83.5036 13.9546 83.0146 13.0271C82.5438 12.143 81.8306 11.397 80.9508 10.8683ZM81.0086 16.0251C81.0143 16.64 80.8728 17.248 80.5949 17.8028C80.3349 18.3413 79.9124 18.7936 79.3813 19.1021C78.8503 19.4105 78.2348 19.561 77.6135 19.5343C76.9816 19.5555 76.3578 19.3935 75.8247 19.0695C75.3324 18.7611 74.9434 18.3246 74.7038 17.8117C74.4432 17.2473 74.3086 16.6374 74.3086 16.0207C74.3086 15.4041 74.4432 14.7942 74.7038 14.2298C74.9516 13.6983 75.3618 13.2503 75.8809 12.9445C76.4001 12.6388 77.0039 12.4894 77.6135 12.516C78.2337 12.4889 78.8483 12.6382 79.3792 12.9449C79.9101 13.2517 80.3333 13.702 80.5949 14.2386C80.8753 14.7958 81.0169 15.4072 81.0086 16.0251Z" fill="white"/>
  <path d="M94.151 10.8683C93.215 10.3203 92.1338 10.0397 91.0356 10.0598C90.1277 10.0382 89.2285 10.2328 88.4194 10.626C88.1281 10.7752 87.8526 10.9507 87.5966 11.1502V6H84.8672V21.8208H87.5966V20.9022C88.5672 21.6492 89.7891 22.035 91.0356 21.9882C92.1087 22.0145 93.1673 21.7466 94.0854 21.2163C95.0035 20.686 95.7426 19.9157 96.2148 18.9968C96.7012 18.0731 96.9492 17.052 96.9382 16.0185C96.9519 14.9806 96.7038 13.9546 96.2148 13.0271C95.744 12.143 95.0308 11.397 94.151 10.8683ZM94.2088 16.0251C94.2134 16.6399 94.0719 17.2476 93.7951 17.8028C93.5351 18.3413 93.1126 18.7936 92.5815 19.1021C92.0504 19.4105 91.435 19.561 90.8137 19.5343C90.1818 19.5558 89.5579 19.3937 89.0249 19.0695C88.5352 18.7602 88.1486 18.3237 87.9109 17.8117C87.6454 17.2503 87.5106 16.6409 87.5157 16.0251C87.5066 15.4062 87.6415 14.793 87.9109 14.2298C88.1587 13.6983 88.5689 13.2503 89.0881 12.9445C89.6072 12.6388 90.211 12.4894 90.8206 12.516C91.4408 12.4889 92.0554 12.6382 92.5863 12.9449C93.1172 13.2517 93.5404 13.702 93.802 14.2386C94.08 14.7964 94.2192 15.4077 94.2088 16.0251Z" fill="white"/>
  <path d="M100.798 6H98.0688V21.8208H100.798V6Z" fill="white"/>
  <path d="M114 16.0252C114.013 14.9872 113.765 13.9613 113.276 13.0337C112.804 12.1431 112.085 11.3933 111.196 10.8661C110.215 10.3376 109.107 10.0598 107.98 10.0598C106.853 10.0598 105.746 10.3376 104.764 10.8661C103.866 11.3889 103.138 12.1394 102.661 13.0337C102.173 13.9616 101.925 14.9873 101.938 16.0252C101.929 17.0667 102.192 18.094 102.703 19.0144C103.201 19.9119 103.947 20.6628 104.859 21.1864C105.839 21.7338 106.959 22.0114 108.095 21.9883C109.523 21.9883 110.716 21.6512 111.642 20.9882C112.55 20.3399 113.246 19.4601 113.651 18.4505L113.93 17.7588H110.998L110.845 18.0254C110.595 18.4738 110.228 18.8532 109.78 19.1268C109.273 19.4186 108.688 19.5625 108.097 19.5409C107.505 19.5533 106.92 19.4165 106.401 19.1444C105.927 18.8965 105.528 18.5351 105.245 18.0958C105.058 17.8069 104.914 17.4948 104.815 17.1685H113.988L114 16.0252ZM104.871 14.6704C105.05 14.1405 105.36 13.6598 105.777 13.2694C106.322 12.7562 107.036 12.5072 107.965 12.5072C108.894 12.5072 109.613 12.7562 110.166 13.2716C110.583 13.6562 110.893 14.134 111.067 14.6616L104.871 14.6704Z" fill="white"/>
  <defs>
    <linearGradient id="paint0_linear_469_35712" x1="-10.3846" y1="21" x2="-10.6298" y2="5.11199" gradientUnits="userSpaceOnUse">
      <stop stop-color="#05FAFF"/>
      <stop offset="1" stop-color="#858EFF"/>
    </linearGradient>
  </defs>
</svg>
